# xmcd
# 
# Track frame offsets:
#     182
#     15932
#     28385
#     48417
#     64817
#     76932
#     96202
#     112135
#     123172
#     133692
#     146447
#     158915
#     169065
#     186550
#     204985
#     220290
# 
# Disc length: 3141
# 
# Revision: 7
# Processed by: cddbd v1.5.2PL0 Copyright (c) Steve Scherf et al.
# Submitted via: fre:ac v1.0.17
# 
DISCID=e40c4310
DTITLE=Various Artist - Blue Velvet - 16 schmusesongs Vol. 2 - CD 1
DYEAR=1994
DGENRE=Pop
TTITLE0=Fortunes - You've got your troubles
TTITLE1=Marbles - Only one woman
TTITLE2=Moody Blues - Nights in white satin
TTITLE3=Righteous Brothers - Unchained melody
TTITLE4=Nancy and Frank Sinatra - Somethin' stupid
TTITLE5=Marmalade - Reflections of my life
TTITLE6=Tremeloes - I shall be released
TTITLE7=Tab Hunter - Red sails in the sunset
TTITLE8=Earl Grant - The end
TTITLE9=Buddy Holly - True love ways
TTITLE10=Brenda Lee - All alone am I
TTITLE11=Pat Boone - Love letters in the sand
TTITLE12=George McCrae - Rock your baby
TTITLE13=Don Williams - I believe in you
TTITLE14=Mama Cass - Dream a little dream of me
TTITLE15=Kenny Rogers and The First Edition - For the good times
EXTD=
EXTT0=
EXTT1=
EXTT2=
EXTT3=
EXTT4=
EXTT5=
EXTT6=
EXTT7=
EXTT8=
EXTT9=
EXTT10=
EXTT11=
EXTT12=
EXTT13=
EXTT14=
EXTT15=
PLAYORDER=
